<?xml version="1.0" standalone="no"?><!DOCTYPE svg PUBLIC "-//W3C//DTD SVG 1.1//EN" "http://www.w3.org/Graphics/SVG/1.1/DTD/svg11.dtd"><svg t="1728475170879" class="icon" viewBox="0 0 1024 1024" version="1.1" xmlns="http://www.w3.org/2000/svg" p-id="3439" xmlns:xlink="http://www.w3.org/1999/xlink" width="200" height="200"><path d="M953.571556 696.32c-38.855111 0-70.371556 32.085333-70.371556 71.68 0 39.594667 31.516444 71.68 70.371556 71.68 38.912 0 70.428444-32.085333 70.428444-71.68 0-39.594667-31.516444-71.68-70.428444-71.68z m-211.171556 0c-38.855111 0-70.428444 32.085333-70.428444 71.68 0 39.594667 31.573333 71.68 70.428444 71.68 38.855111 0 70.371556-32.085333 70.371556-71.68 0-39.594667-31.516444-71.68-70.371556-71.68zM460.8 768c0 39.594667 31.516444 71.68 70.371556 71.68 38.912 0 70.428444-32.085333 70.428444-71.68 0-39.594667-31.516444-71.68-70.428444-71.68-38.855111 0-70.371556 32.085333-70.371556 71.68z m457.955556-233.244444V95.459556C918.755556 43.463111 874.951111 0 822.613333 0H111.957333C59.619556 0 0 59.164444 0 111.160889v801.678222C0 964.835556 59.619556 1024 111.957333 1024h550.741334c29.923556 0 47.559111-18.602667 47.559111-43.292444 0-28.899556-20.707556-55.808-40.220445-56.206223l-529.237333-0.625777c-28.046222-0.113778-40.504889-12.629333-40.504889-40.732445L100.408889 134.257778c0-24.746667 9.784889-34.588444 34.531555-34.702222h0.455112l647.850666-0.170667c25.031111 0 35.043556 9.955556 35.100445 34.986667l0.056889 400.497777c0 19.683556 26.908444 36.636444 57.059555 36.636445 27.875556 0 43.292444-16.952889 43.292445-36.636445zM197.518222 310.954667h528.440889c19.797333 0 35.84-26.168889 35.84-45.852445 0-19.683556-16.042667-45.852444-35.84-45.852444H197.518222c-19.797333 0-35.84 26.168889-35.84 45.852444 0 19.683556 16.042667 45.852444 35.84 45.852445zM761.173333 512.568889c0-19.683556-16.042667-45.852444-35.84-45.852445H197.518222c-19.797333 0-35.84 26.168889-35.84 45.852445 0 19.683556 16.042667 45.852444 35.84 45.852444h527.815111c19.797333 0 35.84-26.168889 35.84-45.852444z m-563.655111 202.524444c-19.797333 0-35.84 26.168889-35.84 45.852445 0 19.683556 16.042667 45.852444 35.84 45.852444h124.757334c19.797333 0 35.84-26.168889 35.84-45.852444 0-19.683556-16.042667-45.852444-35.84-45.852445H197.518222z" fill="#038ce8" opacity=".8" p-id="3440"></path></svg>